# xmcd
#
# Track frame offsets: 
#        150
#        11834
#        23356
#        34407
#        46313
#        56930
#        68096
#        80392
#        92695
#        104187
#        117539
#        132578
#        148511
#        166086
#        181252
#        196358
#        211300
#        225723
#        237693
#        251002
#
# Disc length: 3534 seconds
#
# Revision: 3
# Processed by: cddbd v1.5.2PL0 Copyright (c) Steve Scherf et al.
# Submitted via: ExactAudioCopyFreeDBPlugin 1.0
#
DISCID=240dcc14
DTITLE=Rufus Thomas - The Very Best of Rufus Thomas
DYEAR=2007
DGENRE=Soul
TTITLE0=The Dog
TTITLE1=Walking the Dog
TTITLE2=Can Your Monkey Do the Dog (single version)
TTITLE3=Somebody Stole My Dog
TTITLE4=Jump Back
TTITLE5=Little Sally Walker
TTITLE6=Sister's Got a Boyfriend
TTITLE7=Sophisticated Mississippi
TTITLE8=Memphis Train
TTITLE9=Funky Mississippi
TTITLE10=Do the Funky Chicken
TTITLE11=Sixty Minute Man (pt 2)
TTITLE12=The Preacher and the Bear
TTITLE13=(Do the) Push and Pull (pt 1)
TTITLE14=The World is Round
TTITLE15=The Breakdown (pt 1)
TTITLE16=Do the Funky Penguin (pt 1)
TTITLE17=6-3-8
TTITLE18=Boogie Ain't Nuttin' (But Gettin' Down) (pt 1)
TTITLE19=Do the Double Bump
EXTD=
EXTT0=
EXTT1=
EXTT2=
EXTT3=
EXTT4=
EXTT5=
EXTT6=
EXTT7=
EXTT8=
EXTT9=
EXTT10=
EXTT11=
EXTT12=
EXTT13=
EXTT14=
EXTT15=
EXTT16=
EXTT17=
EXTT18=
EXTT19=
PLAYORDER=
